<mxfile host="app.diagrams.net" modified="2023-07-13T07:18:03.598Z" agent="Mozilla/5.0 (Windows NT 10.0; Win64; x64) AppleWebKit/537.36 (KHTML, like Gecko) Chrome/114.0.0.0 Safari/537.36" etag="p4HWvZEzpwtXOh0LkW9o" version="21.6.2" type="github">
  <diagram name="第 1 页" id="BXXYH7bY8RtXiqKOdwB_">
    <mxGraphModel dx="1050" dy="549" grid="1" gridSize="10" guides="1" tooltips="1" connect="1" arrows="1" fold="1" page="1" pageScale="1" pageWidth="827" pageHeight="1169" math="0" shadow="0">
      <root>
        <mxCell id="0" />
        <mxCell id="1" parent="0" />
        <mxCell id="69yBRS0qYgQLtkPEpuMN-1" value="CPU 0" style="whiteSpace=wrap;html=1;aspect=fixed;fillColor=#ffe6cc;strokeColor=#d79b00;" parent="1" vertex="1">
          <mxGeometry x="170" y="150" width="80" height="80" as="geometry" />
        </mxCell>
        <mxCell id="69yBRS0qYgQLtkPEpuMN-2" value="CPU 1" style="whiteSpace=wrap;html=1;aspect=fixed;fillColor=#ffe6cc;strokeColor=#d79b00;" parent="1" vertex="1">
          <mxGeometry x="350" y="150" width="80" height="80" as="geometry" />
        </mxCell>
        <mxCell id="69yBRS0qYgQLtkPEpuMN-3" value="CPU 2" style="whiteSpace=wrap;html=1;aspect=fixed;fillColor=#ffe6cc;strokeColor=#d79b00;" parent="1" vertex="1">
          <mxGeometry x="530" y="150" width="80" height="80" as="geometry" />
        </mxCell>
        <mxCell id="69yBRS0qYgQLtkPEpuMN-4" value="内存" style="rounded=1;whiteSpace=wrap;html=1;fillColor=#f8cecc;strokeColor=#b85450;" parent="1" vertex="1">
          <mxGeometry x="210" y="350" width="120" height="60" as="geometry" />
        </mxCell>
        <mxCell id="69yBRS0qYgQLtkPEpuMN-5" value="内存" style="rounded=1;whiteSpace=wrap;html=1;fillColor=#f8cecc;strokeColor=#b85450;" parent="1" vertex="1">
          <mxGeometry x="470" y="350" width="120" height="60" as="geometry" />
        </mxCell>
        <mxCell id="69yBRS0qYgQLtkPEpuMN-6" value="" style="endArrow=none;html=1;rounded=0;" parent="1" edge="1">
          <mxGeometry width="50" height="50" relative="1" as="geometry">
            <mxPoint x="110" y="290" as="sourcePoint" />
            <mxPoint x="700" y="290" as="targetPoint" />
          </mxGeometry>
        </mxCell>
        <mxCell id="69yBRS0qYgQLtkPEpuMN-13" value="&lt;font style=&quot;font-size: 21px;&quot;&gt;总线&lt;/font&gt;" style="edgeLabel;html=1;align=center;verticalAlign=middle;resizable=0;points=[];labelBackgroundColor=#ffffff;fontColor=#e9baba;" parent="69yBRS0qYgQLtkPEpuMN-6" vertex="1" connectable="0">
          <mxGeometry x="0.7722" y="-2" relative="1" as="geometry">
            <mxPoint x="77" y="-2" as="offset" />
          </mxGeometry>
        </mxCell>
        <mxCell id="69yBRS0qYgQLtkPEpuMN-7" value="" style="endArrow=none;html=1;rounded=0;entryX=0.395;entryY=0.983;entryDx=0;entryDy=0;entryPerimeter=0;" parent="1" target="69yBRS0qYgQLtkPEpuMN-2" edge="1">
          <mxGeometry width="50" height="50" relative="1" as="geometry">
            <mxPoint x="382" y="290" as="sourcePoint" />
            <mxPoint x="510" y="250" as="targetPoint" />
          </mxGeometry>
        </mxCell>
        <mxCell id="69yBRS0qYgQLtkPEpuMN-9" value="" style="endArrow=none;html=1;rounded=0;entryX=0.5;entryY=1;entryDx=0;entryDy=0;" parent="1" target="69yBRS0qYgQLtkPEpuMN-3" edge="1">
          <mxGeometry width="50" height="50" relative="1" as="geometry">
            <mxPoint x="570" y="290" as="sourcePoint" />
            <mxPoint x="510" y="250" as="targetPoint" />
          </mxGeometry>
        </mxCell>
        <mxCell id="69yBRS0qYgQLtkPEpuMN-10" value="" style="endArrow=none;html=1;rounded=0;entryX=0.5;entryY=1;entryDx=0;entryDy=0;" parent="1" target="69yBRS0qYgQLtkPEpuMN-1" edge="1">
          <mxGeometry width="50" height="50" relative="1" as="geometry">
            <mxPoint x="210" y="290" as="sourcePoint" />
            <mxPoint x="510" y="250" as="targetPoint" />
          </mxGeometry>
        </mxCell>
        <mxCell id="69yBRS0qYgQLtkPEpuMN-11" value="" style="endArrow=none;html=1;rounded=0;exitX=0.5;exitY=0;exitDx=0;exitDy=0;" parent="1" source="69yBRS0qYgQLtkPEpuMN-4" edge="1">
          <mxGeometry width="50" height="50" relative="1" as="geometry">
            <mxPoint x="460" y="300" as="sourcePoint" />
            <mxPoint x="270" y="290" as="targetPoint" />
          </mxGeometry>
        </mxCell>
        <mxCell id="69yBRS0qYgQLtkPEpuMN-12" value="" style="endArrow=none;html=1;rounded=0;exitX=0.5;exitY=0;exitDx=0;exitDy=0;" parent="1" source="69yBRS0qYgQLtkPEpuMN-5" edge="1">
          <mxGeometry width="50" height="50" relative="1" as="geometry">
            <mxPoint x="460" y="300" as="sourcePoint" />
            <mxPoint x="530" y="290" as="targetPoint" />
          </mxGeometry>
        </mxCell>
      </root>
    </mxGraphModel>
  </diagram>
</mxfile>
